<?xml version="1.0" encoding="UTF-8"?>
<svg id="Layer_1" xmlns="http://www.w3.org/2000/svg" version="1.1" viewBox="0 0 876.2 862.88">
  <!-- Generator: Adobe Illustrator 29.8.1, SVG Export Plug-In . SVG Version: 2.1.1 Build 2)  -->
  <defs>
    <style>
      .st0 {
        fill: #fff;
      }

      .st1 {
        fill: #16a34a;
      }
    </style>
  </defs>
  <path class="st1" d="M181.16,140.96c-29.9,7.99-54.36,34.87-58.87,65.62-7.02,47.9,31.1,95.42,79.39,99.36,11.28.92,22.34-3.01,30.31,7.69,9.27,12.45,2.27,30.64-13.32,32.33-44.61,4.83-96.02-21.79-117.62-60.89-2.11-1.23-15.24,8.52-17.78,10.49-45.66,35.44-58.79,104.6-22.6,151.38,40.63-49.08,115.42-59.62,164.97-16.96,9.27,7.98,26.84,29.22,27.54,41.51.87,15.22-14.37,24.54-28.3,19.25-7.8-2.96-9.96-11.66-14.28-17.72-30.81-43.21-91.38-36.94-122.39,2.47-37.6,47.8-30.06,124.07,21.44,158.47,10.59-33.48,53.39-69.53,89.77-63.77,20.04,3.17,22.35,31.44,3.29,36.81-10.06,2.83-16.21,1.28-26.86,7.14-55.19,30.4-41.24,123.4,22.26,135.36,16.12,3.04,38.78-4.37,46.24,12.76,3.61,8.27,4.41,15.97,9.29,24.71,25.72,46.13,90.52,48.76,119.75,4.71,22.67-34.18,9.3-89.27,12.74-129.26,2.28-26.46,36.37-26.19,39.02.05-2.8,41.3,8.06,87.18-6.24,126.73-35.47,98.07-171.11,98.08-205.91.92-48.03.92-92-30.55-106.1-76.4-3.86-12.56-4.9-24.79-6.22-37.78-69.14-37.8-94.65-122.73-62.77-194.32-14.86-17.16-26.67-36.1-32.67-58.24-19.05-70.36,15.21-143.07,79.45-175.36-17.06-68.72,29.9-137.61,99.06-148.97,12.94-41.22,42-74.96,82.89-90.11,77.17-28.57,155.94,16.57,160.56,100.48,2.22,40.26-1.73,82.55-.05,123.03-2.59,25.78-36.42,25.83-39.88.9-2.65-41.57,3.15-86.78-.08-127.92-5.3-67.62-89.07-81.72-135.51-41.43-48.51,42.09-43.58,131.54,28.1,142.84,3.77.59,7.03-.2,11.19.81,21.47,5.26,19.61,40.73-12.36,39.35-54.85-2.37-96.95-52.63-97.46-106.03Z"/>
  <path class="st1" d="M775.38,676.16c.68,37.74-17.58,74.6-48.9,95.61-19.7,13.21-42.65,18.37-66.27,18.23-21.34,79.73-127.1,96.78-180.56,36.97-42.32-47.35-26.56-108.48-29.49-166.52,2.54-22.57,34.37-23.35,37.76-2.76,7.94,48.1-14.69,110.4,26.22,147.78,29.78,27.21,82.5,23.12,102.2-13.83,1.27-2.38,4.28-9.06,4.62-11.44.8-5.67-4.33-7.19-6.29-12.25-6.26-16.14,8.55-30.85,24.46-25.46,20.5,6.94,28.74,11.83,51.55,3.49,52.46-19.17,61.2-100.14,14.8-129.84-12.67-8.11-18.01-6.36-31.38-8.62-22.63-3.83-20.18-34.98,2.55-37.56,39.01-4.43,78.85,28.15,90.52,64,10.87-5.33,20.5-17.11,27-27.48,23.84-38.02,23.53-89.22-1.21-126.83-27.44-41.71-87.43-51.12-120.78-11.16-5.19,6.22-8.51,16.19-14.7,20.3-11.1,7.39-27.73,2.27-30.09-11.57-2.86-16.77,20.17-42.19,32.85-51.68,48.88-36.59,118.57-26.8,156.41,20.4,35.84-47.81,20.93-120.22-27.18-153.8-2.43-1.7-11.11-8.14-13.32-6.73-.88.56-7.24,10.81-9.02,13.02-16.97,21.03-51.7,44.76-79.47,45.59-15.79.47-25.52-14.02-19.3-28.35,5.43-12.52,23.05-12.19,34.76-17.24,56.37-24.33,71.32-101.7,23.56-142.49-19.81-16.92-43.07-20.21-68.53-18.97-.02-58-50.57-105.17-109.2-94.71-32.31,5.77-58.88,35.06-59.69,68.31-.97,39.41,3.89,80.48.94,119.93-2.25,30.07-38.23,27.46-40.08,0,5.68-61.06-16.55-137.92,25.07-189.01,64.64-79.34,193.88-36.36,217.95,56.99,64.3,10.31,106.84,66.01,102,130.97-.26,3.56-3.63,16.78-2.53,18.52,86.55,41.7,112.73,162.32,45.83,233.48,31.01,70.14,5.65,158.41-63.07,194.72Z"/>
  <path class="st0" d="M540.15,440.95l-6.96-25.52c-12.51-31.26-39.72-55.97-72.99-63.01l-22.03-3.45,229.98-172.01-128,263.99Z"/>
  <path class="st1" d="M440.17,550.97l-214.99,176.99,117.49-249.99c13.49,41.86,53.54,71.5,97.5,73.01Z"/>
  <path class="st1" d="M431.97,364.26c-66.19,4.7-102.7,80.46-63.21,134.62,35.94,49.3,112.13,45.72,142.22-7.61,33.04-58.57-11.73-131.79-79.01-127.01ZM432.68,493.94c-52.41-4.58-53.36-82.85-2.76-89.73,67.48-9.17,69.12,95.52,2.76,89.73Z"/>
</svg>