<?xml version="1.0" encoding="UTF-8"?>
<svg id="Layer_1" xmlns="http://www.w3.org/2000/svg" version="1.1" viewBox="0 0 1427.91 1110.69">
  <!-- Generator: Adobe Illustrator 29.8.1, SVG Export Plug-In . SVG Version: 2.1.1 Build 2)  -->
  <defs>
    <style>
      .st0 {
        fill: #fff;
      }

      .st1 {
        fill: #16a34a;
      }
    </style>
  </defs>
  <path class="st1" d="M449.9,140.96c-29.9,7.99-54.36,34.87-58.87,65.62-7.02,47.9,31.1,95.42,79.39,99.36,11.28.92,22.34-3.01,30.31,7.69,9.27,12.45,2.27,30.64-13.32,32.33-44.61,4.83-96.02-21.79-117.62-60.89-2.11-1.23-15.24,8.52-17.78,10.49-45.66,35.44-58.79,104.6-22.6,151.38,40.63-49.08,115.42-59.62,164.97-16.96,9.27,7.98,26.84,29.22,27.54,41.51.87,15.22-14.37,24.54-28.3,19.25-7.8-2.96-9.96-11.66-14.28-17.72-30.81-43.21-91.38-36.94-122.39,2.47-37.6,47.8-30.06,124.07,21.44,158.47,10.59-33.48,53.39-69.53,89.77-63.77,20.04,3.17,22.35,31.44,3.29,36.81-10.06,2.83-16.21,1.28-26.86,7.14-55.19,30.4-41.24,123.4,22.26,135.36,16.12,3.04,38.78-4.37,46.24,12.76,3.61,8.27,4.41,15.97,9.29,24.71,25.72,46.13,90.52,48.76,119.75,4.71,22.67-34.18,9.3-89.27,12.74-129.26,2.28-26.46,36.37-26.19,39.02.05-2.8,41.3,8.06,87.18-6.24,126.73-35.47,98.07-171.11,98.08-205.91.92-48.03.92-92-30.55-106.1-76.4-3.86-12.56-4.9-24.79-6.22-37.78-69.14-37.8-94.65-122.73-62.77-194.32-14.86-17.16-26.67-36.1-32.67-58.24-19.05-70.36,15.21-143.07,79.45-175.36-17.06-68.72,29.9-137.61,99.06-148.97,12.94-41.22,42-74.96,82.89-90.11,77.17-28.57,155.94,16.57,160.56,100.48,2.22,40.26-1.73,82.55-.05,123.03-2.59,25.78-36.42,25.83-39.88.9-2.65-41.57,3.15-86.78-.08-127.92-5.3-67.62-89.07-81.72-135.51-41.43-48.51,42.09-43.58,131.54,28.1,142.84,3.77.59,7.03-.2,11.19.81,21.47,5.26,19.61,40.73-12.36,39.35-54.85-2.37-96.95-52.63-97.46-106.03Z"/>
  <path class="st1" d="M1044.12,676.16c.68,37.74-17.58,74.6-48.9,95.61-19.7,13.21-42.65,18.37-66.27,18.23-21.34,79.73-127.1,96.78-180.56,36.97-42.32-47.35-26.56-108.48-29.49-166.52,2.54-22.57,34.37-23.35,37.76-2.76,7.94,48.1-14.69,110.4,26.22,147.78,29.78,27.21,82.5,23.12,102.2-13.83,1.27-2.38,4.28-9.06,4.62-11.44.8-5.67-4.33-7.19-6.29-12.25-6.26-16.14,8.55-30.85,24.46-25.46,20.5,6.94,28.74,11.83,51.55,3.49,52.46-19.17,61.2-100.14,14.8-129.84-12.67-8.11-18.01-6.36-31.38-8.62-22.63-3.83-20.18-34.98,2.55-37.56,39.01-4.43,78.85,28.15,90.52,64,10.87-5.33,20.5-17.11,27-27.48,23.84-38.02,23.53-89.22-1.21-126.83-27.44-41.71-87.43-51.12-120.78-11.16-5.19,6.22-8.51,16.19-14.7,20.3-11.1,7.39-27.73,2.27-30.09-11.57-2.86-16.77,20.17-42.19,32.85-51.68,48.88-36.59,118.57-26.8,156.41,20.4,35.84-47.81,20.93-120.22-27.18-153.8-2.43-1.7-11.11-8.14-13.32-6.73-.88.56-7.24,10.81-9.02,13.02-16.97,21.03-51.7,44.76-79.47,45.59-15.79.47-25.52-14.02-19.3-28.35,5.43-12.52,23.05-12.19,34.76-17.24,56.37-24.33,71.32-101.7,23.56-142.49-19.81-16.92-43.07-20.21-68.53-18.97-.02-58-50.57-105.17-109.2-94.71-32.31,5.77-58.88,35.06-59.69,68.31-.97,39.41,3.89,80.48.94,119.93-2.25,30.07-38.23,27.46-40.08,0,5.68-61.06-16.55-137.92,25.07-189.01,64.64-79.34,193.88-36.36,217.95,56.99,64.3,10.31,106.84,66.01,102,130.97-.26,3.56-3.63,16.78-2.53,18.52,86.55,41.7,112.73,162.32,45.83,233.48,31.01,70.14,5.65,158.41-63.07,194.72Z"/>
  <path class="st0" d="M808.9,440.95l-6.96-25.52c-12.51-31.26-39.72-55.97-72.99-63.01l-22.03-3.45,229.98-172.01-128,263.99Z"/>
  <path class="st1" d="M708.91,550.97l-214.99,176.99,117.49-249.99c13.49,41.86,53.54,71.5,97.5,73.01Z"/>
  <path class="st1" d="M90.71,921.26c29-1.89,61.05,8.93,79.24,32.2,0,2.55-17.92,18.01-20.54,21.48-46.69-52.38-131.82-10.15-112.76,59.78,11.02,40.43,56.5,57.3,93.14,38.62,8.46-4.31,14.26-10.49,21.49-16.3l20.62,20.43c-12.99,14.55-28.81,25.32-47.97,30.01-52.92,12.96-108.68-13.83-121.34-68.69-13.63-59.09,28.2-113.63,88.12-117.53Z"/>
  <path class="st1" d="M705.91,1105.96h-28v-125h26.5c.11,0,1.5,1.39,1.5,1.5v15.5c10.2-13.12,27.36-24.62,44-17.5v26c0,2.2-5.61.47-7.45.45-19.53-.2-36.55,12.81-36.55,33.55v65.5Z"/>
  <path class="st1" d="M348.91,1105.96h-28v-124c9.41.51,18.7-2.6,28,0v16c4.78-6.19,18.54-19,26.5-19h16c.11,0,1.5,1.39,1.5,1.5v26c0,2.3-4.9.49-6.45.45-18.58-.41-37.55,11.02-37.55,31.55v67.5Z"/>
  <path class="st1" d="M700.71,364.26c-66.19,4.7-102.7,80.46-63.21,134.62,35.94,49.3,112.13,45.72,142.22-7.61,33.04-58.57-11.73-131.79-79.01-127.01ZM701.43,493.94c-52.41-4.58-53.36-82.85-2.76-89.73,67.48-9.17,69.12,95.52,2.76,89.73Z"/>
  <path class="st1" d="M275.21,986.16c-22.8-14.01-65.65-8.76-83.23,12.44l16.57,17.29c17.92-16.49,60.64-20.25,58.38,13.49-27.8.14-78.35-.74-82.01,37.09-4.18,43.31,51.58,54.58,79.05,29.05,1.37-1.27,1.38-3.37,2.93-3.55.49,2.71-1.26,13.14,1.51,13.99,3.38,1.04,20.83,0,26,0,.11,0,1.5-1.39,1.5-1.5v-82c0-13.8-9.03-29.14-20.7-36.3ZM228.65,1084.72c-15.34-2.59-20.88-20.48-7.09-28.62,3-1.77,15.6-5.14,18.86-5.14h26.5c3.4,23.51-16.09,37.5-38.26,33.76Z"/>
  <path class="st1" d="M536.87,1050.5c4.35,58.62,76.33,76.92,114.96,37.82.21-1.23-14.15-16.43-16.56-18.29-10.28,8.06-21.17,14.62-34.9,13.97-17.09-.82-32.99-14.5-33.46-32.04h90c14.36-96.54-127.21-98.1-120.04-1.46ZM566.91,1031.96c4.64-36.34,59.6-38.9,62,0h-62Z"/>
  <path class="st1" d="M473.31,979.07c-49.43-5.48-82.27,36.99-69.89,83.89,13.31,50.42,79.86,60.87,113.47,24.51l-17.62-17.43c-4.38,2.77-7.99,6.76-12.68,9.11-23.89,11.96-53.03.63-55.68-27.18h90c6.43-32.02-13.33-69.09-47.61-72.89ZM430.91,1031.96c4.73-36.44,60.08-38.71,62,0h-62Z"/>
  <g>
    <path class="st0" d="M823.7,922.25c26.72-2.73,54.73,5.5,73.13,25.34.37,2.11-17.7,19.55-20.43,22.34-14.48-16.95-44.4-25.57-64.19-13.18-13.02,8.15-14.47,23.93-2.22,33.61,27.71,21.89,91.13,11.72,91.53,66.26.49,66.33-104.99,66.64-137.55,25.69-.31-1.76,16.86-19.39,19.42-22.12,9.93,8.29,18.28,15.15,31.09,18.68,16.4,4.52,48.58,5.23,54.47-15.38,7.86-27.47-39.88-31.6-57.82-38.28-64.77-24.1-47.87-96.81,12.56-102.98Z"/>
    <path class="st0" d="M1173.91,1105.96h-29v-77.5c0-1.88-2.84-9.03-3.97-11.03-11.02-19.33-42.04-15.85-51.21,3.85-.53,1.14-2.82,7.56-2.82,8.18v75c0,.11-1.39,1.5-1.5,1.5h-27.5v-125h26.5c.11,0,1.5,1.39,1.5,1.5v14.5c24.57-28.8,73.75-24.5,85.03,14.47.85,2.93,2.97,11.5,2.97,14.03v80.5Z"/>
    <path class="st0" d="M1233.69,979.24c20.73-2.48,42.05,2.14,56.2,18.22l-16.62,17.43c-10.74-9.64-32.52-17.54-44.87-6.94-10.63,9.13,1.53,16.93,9.98,20.05,19.14,7.06,50.97,9.06,54.45,35.55,7.14,54.41-75.27,56.92-100.84,23.78l16.57-18.29c5.45,3.81,9.79,8.99,15.99,11.8,10.18,4.62,34.47,7.55,39.87-4.87,7.88-18.14-26.94-21.06-38.03-24.96-46.24-16.27-34.83-66.72,7.32-71.76Z"/>
    <path class="st0" d="M1035.91,1031.46c0-18.74-17.07-40.93-34.02-47.98-55.77-23.21-103.21,34.49-81.47,87.47,17.9,43.62,79.08,50,110.41,17.38.21-1.23-14.15-16.44-16.56-18.29-10.66,8.16-21.7,14.87-35.85,13.91-16.74-1.14-32.57-14.62-32.51-31.98h90v-20.5ZM1006.41,1031.96h-60.5c1.82-30.33,46.24-39.47,58.87-11.37.79,1.76,4.31,11.37,1.63,11.37Z"/>
    <path class="st0" d="M1425.19,1020.18c-17.12-61.9-106.73-51.92-117.18,11.39-11.28,68.35,68.01,102.39,114.82,56.76l-17.43-18.32c-12.99,12.43-31.38,18.11-48.5,10.45-10.19-4.56-19.75-17.04-19-28.5h88.5c.11,0,1.5-1.39,1.5-1.5v-19c0-1.12-2.19-9.38-2.72-11.28ZM1398.41,1031.96h-60.5c2.5-31.02,47.63-39.61,59.49-9.99.67,1.68,3.76,9.99,1.01,9.99Z"/>
  </g>
</svg>